<svg width="1134" height="1814" viewBox="0 0 1134 1814" fill="none" xmlns="http://www.w3.org/2000/svg">
<g id="Group 1">
<g id="man 1" clip-path="url(#clip0_101_11)">
<g id="layer1">
<g id="g9357">
<path id="path9347" d="M500.43 311.121C500.43 331.624 483.809 348.244 463.307 348.244C442.804 348.244 426.184 331.623 426.184 311.121C426.184 290.618 442.805 273.998 463.307 273.998C483.81 273.998 500.43 290.619 500.43 311.121Z" fill="black"/>
<path id="path9349" d="M407 424.506C407 424.506 376.661 582.036 370.129 592.696C364.543 601.811 320.949 673.338 320.949 673.338C311.643 688.598 320.462 699.508 330.321 705.2C338.715 710.046 356.758 708.846 362.724 698.67C362.724 698.67 411.09 623.403 416.367 607.17C420.021 595.932 428.51 549.313 428.51 549.313C428.51 549.313 475.506 597.783 480.653 606.456C487.141 617.389 499.224 693.599 499.224 693.599C502.114 707.159 515.046 711.581 528.51 709.313C539.143 707.522 550.263 700.328 547.796 687.17C547.796 687.17 537.05 598.81 528.51 584.31C518.319 567.008 463.51 507.881 463.51 507.881L479.224 437.881C479.224 437.881 489.31 458.327 496.367 467.167C504.393 477.22 554.938 506.453 554.938 506.453C559.575 509.563 570.071 507.849 574.224 500.024C577.558 493.744 577.401 483.57 569.939 478.595C569.939 478.595 528.284 452.444 518.51 444.309C507.64 435.279 485.65 375.039 485.65 375.039C478.829 365.653 469.499 355.297 453.507 355.039C437.388 354.779 429.32 363.659 422.078 368.61C422.078 368.61 360.331 413.715 354.221 422.896C348.074 432.132 337.078 501.467 337.078 501.467C335.354 509.367 338.44 515.72 347.792 517.896C359.235 520.558 367.437 513.433 368.506 507.896C368.506 507.896 375.557 453.131 380.649 445.039C386.578 435.618 406.995 424.518 406.995 424.518L407 424.506Z" fill="black"/>
</g>
</g>
</g>
</g>
<defs>
<clipPath id="clip0_101_11">
<rect width="259.3" height="435.88" fill="white" transform="translate(317 274)"/>
</clipPath>
</defs>
</svg>



<svg width="1134" height="1814" viewBox="0 0 1134 1814" fill="none" xmlns="http://www.w3.org/2000/svg">
<g clip-path="url(#clip0_101_11)">
<path d="M500.43 311.121C500.43 331.624 483.809 348.244 463.307 348.244C442.804 348.244 426.184 331.623 426.184 311.121C426.184 290.618 442.805 273.998 463.307 273.998C483.81 273.998 500.43 290.619 500.43 311.121Z" fill="black"/>
<path d="M407 424.506C407 424.506 376.661 582.036 370.129 592.696C364.543 601.811 320.949 673.338 320.949 673.338C311.643 688.598 320.462 699.508 330.321 705.2C338.715 710.046 356.758 708.846 362.724 698.67C362.724 698.67 411.09 623.403 416.367 607.17C420.021 595.932 428.51 549.313 428.51 549.313C428.51 549.313 475.506 597.783 480.653 606.456C487.141 617.389 499.224 693.599 499.224 693.599C502.114 707.159 515.046 711.581 528.51 709.313C539.143 707.522 550.263 700.328 547.796 687.17C547.796 687.17 537.05 598.81 528.51 584.31C518.319 567.008 463.51 507.881 463.51 507.881L479.224 437.881C479.224 437.881 489.31 458.327 496.367 467.167C504.393 477.22 554.938 506.453 554.938 506.453C559.575 509.563 570.071 507.849 574.224 500.024C577.558 493.744 577.401 483.57 569.939 478.595C569.939 478.595 528.284 452.444 518.51 444.309C507.64 435.279 485.65 375.039 485.65 375.039C478.829 365.653 469.499 355.297 453.507 355.039C437.388 354.779 429.32 363.659 422.078 368.61C422.078 368.61 360.331 413.715 354.221 422.896C348.074 432.132 337.078 501.467 337.078 501.467C335.354 509.367 338.44 515.72 347.792 517.896C359.235 520.558 367.437 513.433 368.506 507.896C368.506 507.896 375.557 453.131 380.649 445.039C386.578 435.618 406.995 424.518 406.995 424.518L407 424.506Z" fill="black"/>
</g>
<defs>
<clipPath id="clip0_101_11">
<rect width="259.3" height="435.88" fill="white" transform="translate(317 274)"/>
</clipPath>
</defs>
</svg>
